<?xml version="1.0" standalone="no"?>
<!DOCTYPE svg PUBLIC "-//W3C//DTD SVG 20010904//EN"
 "http://www.w3.org/TR/2001/REC-SVG-20010904/DTD/svg10.dtd">
<svg version="1.0" xmlns="http://www.w3.org/2000/svg"
 width="500.000000pt" height="500.000000pt" viewBox="0 0 500.000000 500.000000"
 preserveAspectRatio="xMidYMid meet">
<metadata>
Created by potrace 1.14, written by Peter Selinger 2001-2017
</metadata>
<g transform="translate(0.000000,500.000000) scale(0.100000,-0.100000)"
fill="#000000" stroke="none">
<path d="M1690 4978 c-75 -29 -161 -115 -184 -184 -30 -93 -24 -191 17 -270
25 -47 95 -112 148 -137 l49 -22 0 -277 0 -278 -33 0 c-73 0 -224 -55 -278
-100 -106 -90 -156 -161 -194 -274 -14 -41 -25 -79 -24 -83 1 -4 1 -23 0 -40
l-1 -33 -278 0 -278 0 -22 48 c-99 212 -383 250 -534 71 -54 -64 -77 -133 -74
-217 5 -120 52 -201 156 -266 155 -98 385 -23 457 150 l17 41 278 1 278 0 0
-262 0 -261 -225 0 -226 1 -24 51 c-29 64 -86 122 -151 154 -41 20 -63 24
-139 24 -77 -1 -97 -5 -140 -27 -205 -106 -241 -381 -70 -531 102 -89 270
-100 387 -26 50 32 113 111 124 154 3 14 11 26 18 26 6 1 109 2 229 3 l217 1
-2 -260 -3 -260 -105 -2 -105 -3 -19 46 c-83 202 -361 254 -521 96 -62 -61
-90 -132 -89 -227 0 -67 5 -89 28 -135 64 -129 178 -194 317 -183 113 8 234
98 271 199 l12 34 108 0 108 0 1 -27 c5 -165 111 -339 262 -431 61 -37 173
-72 229 -72 l38 0 0 -278 0 -277 -49 -22 c-192 -89 -246 -345 -105 -502 67
-74 138 -106 239 -106 66 0 90 5 137 27 200 93 248 355 94 513 -30 30 -70 59
-97 69 l-46 17 1 277 1 277 255 2 c140 1 257 -2 260 -7 4 -6 5 -343 1 -426 -1
-14 -9 -24 -24 -28 -41 -10 -117 -68 -147 -111 -61 -89 -76 -189 -44 -291 25
-79 116 -173 191 -198 70 -23 156 -24 220 -2 66 22 146 93 181 160 22 44 26
63 26 141 1 102 -20 158 -80 220 -38 40 -107 85 -129 85 -18 0 -17 -19 -19
241 l-1 217 262 0 261 0 1 -108 0 -109 -27 -6 c-40 -9 -116 -68 -150 -117 -43
-63 -61 -123 -58 -198 5 -122 74 -225 186 -278 80 -38 192 -37 272 1 157 76
227 271 153 424 -33 68 -101 135 -162 160 l-43 18 0 108 0 107 39 0 c55 0 187
43 239 79 140 93 230 235 248 390 l7 61 277 0 277 0 17 -43 c41 -104 164 -188
281 -189 134 -2 241 62 300 179 25 49 30 69 30 138 0 66 -5 90 -26 135 -77
163 -262 229 -429 154 -69 -31 -111 -72 -149 -145 l-28 -54 -276 -1 -277 -2 0
262 0 262 106 -1 105 -1 26 -52 c121 -245 467 -241 581 7 55 117 27 268 -66
359 -67 66 -122 87 -227 87 -78 0 -97 -4 -141 -27 -64 -34 -115 -86 -147 -152
l-26 -52 -103 0 -103 1 -3 261 -2 262 279 0 279 0 16 -42 c24 -62 87 -129 153
-162 81 -40 192 -41 274 -3 69 33 124 88 158 159 34 72 36 190 4 261 -79 176
-296 245 -460 147 -53 -32 -110 -99 -133 -155 l-12 -33 -277 0 -277 0 -11 76
c-34 234 -232 426 -463 451 l-60 6 0 276 0 276 51 24 c68 31 134 101 160 170
23 60 30 190 11 214 -5 6 -12 24 -16 38 -10 43 -91 125 -154 156 -49 24 -69
28 -142 28 -72 -1 -93 -5 -136 -27 -149 -78 -216 -241 -162 -398 25 -74 92
-148 165 -181 l51 -23 1 -278 0 -277 -260 0 c-194 0 -259 3 -260 12 -5 48 -3
207 4 207 4 0 27 9 51 21 56 26 111 81 144 144 23 43 27 62 27 140 0 101 -18
150 -77 216 -46 51 -84 75 -152 94 -146 43 -308 -31 -377 -171 -20 -41 -24
-64 -24 -139 0 -78 4 -97 27 -141 33 -62 85 -114 146 -144 26 -13 49 -27 52
-31 3 -5 5 -52 5 -106 l-2 -98 -260 -2 -261 -2 0 278 1 279 44 17 c56 22 132
96 163 160 36 76 35 190 -3 268 -34 68 -83 118 -152 154 -69 36 -177 40 -255
11z m194 -174 c71 -46 92 -140 46 -207 -83 -121 -270 -65 -270 81 0 63 26 104
85 135 37 19 104 15 139 -9z m1376 4 c107 -55 107 -207 0 -260 -124 -63 -257
61 -201 186 38 86 118 116 201 74z m-681 -346 c91 -68 92 -188 1 -249 -23 -16
-48 -23 -80 -23 -137 0 -199 165 -98 258 47 43 130 49 177 14z m846 -856 c113
-56 182 -146 205 -265 6 -35 10 -349 10 -857 0 -701 -2 -809 -16 -855 -28 -96
-74 -157 -153 -208 -96 -62 -86 -61 -966 -61 -440 1 -817 3 -838 6 -132 16
-256 130 -293 266 -21 81 -20 1671 1 1742 37 122 136 220 255 252 34 10 246
12 890 11 l845 -2 60 -29z m-3027 -286 c51 -31 74 -76 69 -136 -6 -86 -61
-136 -149 -136 -118 0 -185 137 -115 236 39 55 134 73 195 36z m4352 1 c50
-26 80 -84 75 -141 -6 -57 -29 -89 -85 -117 -98 -51 -210 21 -210 134 0 108
122 177 220 124z m-4242 -698 c46 -35 64 -68 65 -122 3 -112 -113 -182 -216
-130 -113 58 -99 222 23 272 27 11 102 0 128 -20z m3910 0 c83 -62 89 -171 13
-236 -30 -25 -81 -39 -116 -32 -11 2 -25 4 -31 4 -16 1 -70 52 -83 78 -32 64
5 167 72 198 41 19 112 13 145 -12z m-3687 -683 c69 -32 101 -142 60 -208 -66
-104 -219 -93 -265 19 -50 125 82 247 205 189z m4011 1 c35 -13 75 -67 83
-112 5 -27 1 -49 -13 -81 -67 -153 -293 -93 -279 73 9 104 106 160 209 120z
m-1472 -1152 c64 -36 89 -122 56 -191 -32 -68 -125 -100 -198 -70 -68 28 -102
129 -67 199 40 80 130 106 209 62z m-702 -228 c32 -17 71 -69 77 -105 10 -51
-11 -112 -48 -140 -51 -39 -76 -45 -132 -31 -86 22 -132 100 -107 184 26 85
134 133 210 92z m-675 -117 c112 -81 60 -260 -78 -269 -52 -4 -118 32 -140 75
-35 68 -9 159 57 201 41 25 121 22 161 -7z"/>
<path d="M1918 3375 c-29 -6 -70 -19 -91 -29 -96 -47 -186 -166 -204 -271 -5
-27 -8 -297 -7 -600 1 -499 3 -555 19 -600 46 -129 152 -222 285 -250 38 -7
226 -11 600 -9 590 1 587 1 683 57 90 53 161 161 175 264 4 32 7 301 6 598 -1
586 0 571 -58 670 -45 77 -147 150 -236 171 -55 12 -1110 12 -1172 -1z m1177
-186 c48 -23 86 -64 105 -114 8 -20 11 -196 11 -576 0 -596 1 -586 -58 -647
-62 -65 -35 -62 -656 -62 l-565 0 -48 33 c-31 20 -57 48 -71 77 l-23 45 -1
554 0 554 24 46 c13 26 41 59 66 76 l43 30 186 5 c103 3 357 4 564 3 363 -3
379 -4 423 -24z"/>
</g>
</svg>
